<?xml version="1.0" encoding="UTF-8" standalone="no"?>
<!DOCTYPE svg PUBLIC "-//W3C//DTD SVG 1.1//EN" "http://www.w3.org/Graphics/SVG/1.1/DTD/svg11.dtd">
<svg width="100%" height="100%" viewBox="0 0 1024 1024" version="1.1" xmlns="http://www.w3.org/2000/svg" xmlns:xlink="http://www.w3.org/1999/xlink" xml:space="preserve" xmlns:serif="http://www.serif.com/" style="fill-rule:evenodd;clip-rule:evenodd;stroke-linejoin:round;stroke-miterlimit:2;">
    <g transform="matrix(1,0,0,1,19.4904,50.7042)">
        <g>
            <g transform="matrix(0.466579,0,0,0.424284,22.227,348.977)">
                <path d="M493.6,794C196.9,794 10,576.3 10,518.6C10,460.8 196.9,206 493.6,206C790.2,206 990,444 990,518.6C990,593.1 790.2,794 493.6,794ZM480.2,368.2C436.9,368.2 401.8,404.5 401.8,449.2C401.8,493.9 436.9,530.2 480.2,530.2C523.5,530.2 558.6,493.9 558.6,449.2C558.6,404.4 523.5,368.2 480.2,368.2ZM715.6,327.7C744.2,367 763.6,406.9 763.6,459.8C763.6,589.7 661.5,695 535.5,695C409.6,695 307.5,589.7 307.5,459.8C307.5,379.5 322.9,329.6 382.4,287.1C194.4,316 76,472.2 76,514.9C76,561.7 231.7,732.1 490.2,732.1C748.7,732.1 918,575.3 918,514.9C918,475.6 873.8,393.3 715.6,327.7Z" style="fill:rgb(11,253,13);fill-rule:nonzero;stroke:black;stroke-width:2.24px;"/>
            </g>
            <g transform="matrix(0.466579,0,0,0.424284,496.213,348.977)">
                <path d="M493.6,794C196.9,794 10,576.3 10,518.6C10,460.8 196.9,206 493.6,206C790.2,206 990,444 990,518.6C990,593.1 790.2,794 493.6,794ZM480.2,368.2C436.9,368.2 401.8,404.5 401.8,449.2C401.8,493.9 436.9,530.2 480.2,530.2C523.5,530.2 558.6,493.9 558.6,449.2C558.6,404.4 523.5,368.2 480.2,368.2ZM715.6,327.7C744.2,367 763.6,406.9 763.6,459.8C763.6,589.7 661.5,695 535.5,695C409.6,695 307.5,589.7 307.5,459.8C307.5,379.5 322.9,329.6 382.4,287.1C194.4,316 76,472.2 76,514.9C76,561.7 231.7,732.1 490.2,732.1C748.7,732.1 918,575.3 918,514.9C918,475.6 873.8,393.3 715.6,327.7Z" style="fill:rgb(12,11,253);fill-rule:nonzero;stroke:black;stroke-width:2.24px;"/>
            </g>
        </g>
        <g transform="matrix(0.466579,0,0,0.424284,259.22,131.331)">
            <path d="M493.6,794C196.9,794 10,576.3 10,518.6C10,460.8 196.9,206 493.6,206C790.2,206 990,444 990,518.6C990,593.1 790.2,794 493.6,794ZM480.2,368.2C436.9,368.2 401.8,404.5 401.8,449.2C401.8,493.9 436.9,530.2 480.2,530.2C523.5,530.2 558.6,493.9 558.6,449.2C558.6,404.4 523.5,368.2 480.2,368.2ZM715.6,327.7C744.2,367 763.6,406.9 763.6,459.8C763.6,589.7 661.5,695 535.5,695C409.6,695 307.5,589.7 307.5,459.8C307.5,379.5 322.9,329.6 382.4,287.1C194.4,316 76,472.2 76,514.9C76,561.7 231.7,732.1 490.2,732.1C748.7,732.1 918,575.3 918,514.9C918,475.6 873.8,393.3 715.6,327.7Z" style="fill:rgb(253,11,11);fill-rule:nonzero;stroke:black;stroke-width:2.24px;"/>
        </g>
    </g>
</svg>
